<?xml version="1.0" ?><svg viewBox="0 0 64 64" xmlns="http://www.w3.org/2000/svg"><title/><g data-name="Sunny Rain" id="Sunny_Rain"><path d="M38.5488,13.6094a11.7867,11.7867,0,0,0-10.9951,7.4385,1,1,0,0,0,.7725,1.3593,11.5887,11.5887,0,0,1,8.7588,6.6944.9919.9919,0,0,0,1.1074.5673A8.9532,8.9532,0,0,1,46.6475,32.41a1,1,0,0,0,.7412.3281c.02,0,.041-.001.06-.002a1,1,0,0,0,.7569-.4218,11.85,11.85,0,0,0-9.6573-18.7051Z" style="fill:#ffd36b"/><path d="M38.5488,10.9678a1,1,0,0,1-1-1V3a1,1,0,0,1,2,0V9.9678A.9994.9994,0,0,1,38.5488,10.9678Z" style="fill:#ffe78f"/><path d="M27.6,15.5029a.9967.9967,0,0,1-.707-.2929l-3.2842-3.2852a1,1,0,1,1,1.4141-1.4141l3.2841,3.2852a1,1,0,0,1-.707,1.707Z" style="fill:#ffe78f"/><path d="M61,26.4512H54.0322a1,1,0,0,1,0-2H61a1,1,0,0,1,0,2Z" style="fill:#ffe78f"/><path d="M49.4971,15.5029a1,1,0,0,1-.7071-1.707l3.2852-3.2852a1,1,0,1,1,1.4141,1.4141L50.2041,15.21A.9967.9967,0,0,1,49.4971,15.5029Z" style="fill:#ffe78f"/><path d="M50.9453,37.67A10.9391,10.9391,0,0,0,38.5684,27.58a13.574,13.574,0,0,0-9.93-7.1475A13.7517,13.7517,0,0,0,13.6494,29.291a7.3315,7.3315,0,0,0-7.1308,7.3213,7.1273,7.1273,0,0,0,.0419.7715A8.2843,8.2843,0,0,0,2,44.7412a8.17,8.17,0,0,0,1.1094,4.1152.9978.9978,0,0,0,.8633.4961H54.2461a1.0023,1.0023,0,0,0,.8174-.4228,7.2314,7.2314,0,0,0,1.3232-4.1885A7.3477,7.3477,0,0,0,50.9453,37.67Z" style="fill:#b2ebf2"/><path d="M9.3379,52.3184c-.3174.3408-3.1025,3.3984-3.1025,5.8476a3.8345,3.8345,0,0,0,7.6689,0c0-2.4492-2.7861-5.5078-3.1035-5.8476A1.03,1.03,0,0,0,9.3379,52.3184Z" style="fill:#9cd5f2"/><path d="M28.4619,52.3184c-.3174.3408-3.1025,3.3984-3.1025,5.8476a3.8345,3.8345,0,0,0,7.6689,0c0-2.4492-2.7861-5.5078-3.1035-5.8476A1.03,1.03,0,0,0,28.4619,52.3184Z" style="fill:#9cd5f2"/><path d="M49.0488,52.3184a1.03,1.03,0,0,0-1.4629,0c-.3173.3408-3.1025,3.3984-3.1025,5.8476a3.834,3.834,0,0,0,7.668,0C52.1514,55.7168,49.3662,52.6592,49.0488,52.3184Z" style="fill:#9cd5f2"/></g></svg>