<?xml version="1.0" ?><svg viewBox="0 0 64 64" xmlns="http://www.w3.org/2000/svg"><title/><g id="Windy"><path d="M55.9775,24.2549A12.0171,12.0171,0,0,0,44,13a12.1822,12.1822,0,0,0-1.68.1162,14.9911,14.9911,0,0,0-27.458,1.8848A8.0093,8.0093,0,0,0,7,23a7.7816,7.7816,0,0,0,.0537.916A9.0645,9.0645,0,0,0,2,32a8.8714,8.8714,0,0,0,1.2188,4.5078A.9986.9986,0,0,0,4.08,37H59.74a.9993.9993,0,0,0,.8194-.4268A7.9408,7.9408,0,0,0,62,32,8.0292,8.0292,0,0,0,55.9775,24.2549Z" style="fill:#9cd5f2"/><path d="M12.999,49.999a5.2691,5.2691,0,0,1-1.1845-.1357A4.9532,4.9532,0,0,1,8.1338,46.17,5.0068,5.0068,0,0,1,13,40H37a1,1,0,0,1,0,2H13a3.0027,3.0027,0,0,0-.7334,5.915,3.0783,3.0783,0,0,0,1.7832-.1035.9039.9039,0,0,0,.5332-1.23.9407.9407,0,0,0-1.1953-.6563,1.0406,1.0406,0,0,1-1.2959-.6367.9608.9608,0,0,1,.6016-1.24L13,45l-.2275-.9775a3.002,3.002,0,0,1,1.9785,5.6621A4.987,4.987,0,0,1,12.999,49.999Z" style="fill:#b2ebf2"/><path d="M26.0352,59a4.1685,4.1685,0,0,1-.9463-.11,3.9593,3.9593,0,0,1-2.9463-2.956A4.0047,4.0047,0,0,1,26.0361,51h9.9278a1,1,0,0,1,0,2H26.0361a2.0019,2.0019,0,0,0-.4941,3.9424,2.0692,2.0692,0,0,0,1.1934-.0684.4271.4271,0,0,0,.2509-.6074.4437.4437,0,0,0-.5849-.334,1.0269,1.0269,0,0,1-1.2813-.63.97.97,0,0,1,.5879-1.247c.0117-.0049.0908-.03.1035-.0342a2.5013,2.5013,0,0,1,1.624,4.7256A3.98,3.98,0,0,1,26.0352,59Z" style="fill:#b2ebf2"/><path d="M51.001,54.999a4.9992,4.9992,0,0,1-1.752-.3144,3.0024,3.0024,0,0,1,1.961-5.668l.0966.0313a1,1,0,0,1-.6132,1.9042l-.0987-.0332a.9272.9272,0,0,0-1.1777.6622.9039.9039,0,0,0,.5332,1.23,3.09,3.09,0,0,0,1.7842.1026A3.0028,3.0028,0,0,0,51,47H25a1,1,0,0,1,0-2H51a5.0023,5.0023,0,0,1,1.1865,9.8623A5.2222,5.2222,0,0,1,51.001,54.999Z" style="fill:#b2ebf2"/></g></svg>