<svg xmlns="http://www.w3.org/2000/svg" xmlns:xlink="http://www.w3.org/1999/xlink" viewBox="0 0 765.6 1360.9"><defs><linearGradient id="linear-gradient" x1="382.75" y1="779.03" x2="382.75" y2="1379.92" gradientTransform="matrix(1, 0, 0, -1, 0, 1444.2)" gradientUnits="userSpaceOnUse"><stop offset="0" stop-color="#fff5dc"/><stop offset="1" stop-color="#f46494"/></linearGradient><linearGradient id="linear-gradient-3" x1="381.16" y1="1237.35" x2="382.18" y2="1237.35" gradientTransform="translate(-728722.48 225323.67) rotate(-90) scale(589.41)" gradientUnits="userSpaceOnUse"><stop offset="0" stop-color="#fef6e1"/><stop offset="1" stop-color="#f687aa"/></linearGradient><linearGradient id="linear-gradient-4" x1="381.16" y1="1237.35" x2="382.18" y2="1237.35" gradientTransform="translate(-728722.48 225323.67) rotate(-90) scale(589.41)" gradientUnits="userSpaceOnUse"><stop offset="0" stop-color="#fdf6e5"/><stop offset="1" stop-color="#f7a2bb"/></linearGradient><linearGradient id="linear-gradient-5" x1="435.8" y1="801.47" x2="435.8" y2="1003.01" gradientTransform="matrix(1, 0, 0, -1, 0, 1444.2)" gradientUnits="userSpaceOnUse"><stop offset="0.01" stop-color="#f495a9"/><stop offset="1" stop-color="#e0688d"/></linearGradient><linearGradient id="linear-gradient-6" x1="115.59" y1="1010.52" x2="111.07" y2="1155.27" xlink:href="#linear-gradient-5"/><linearGradient id="linear-gradient-7" x1="301.81" y1="805.05" x2="364.38" y2="926.03" gradientTransform="matrix(1, 0, 0, -1, 0, 1444.2)" gradientUnits="userSpaceOnUse"><stop offset="0.01" stop-color="#e879a6"/><stop offset="1" stop-color="#cc5c8a"/></linearGradient><linearGradient id="linear-gradient-8" x1="212.5" y1="639.38" x2="212.5" y2="864.09" gradientTransform="matrix(1, 0, 0, -1, 0, 1444.2)" gradientUnits="userSpaceOnUse"><stop offset="0.01" stop-color="#d86498"/><stop offset="1" stop-color="#b74e7e"/></linearGradient><linearGradient id="linear-gradient-9" x1="382.8" y1="722.08" x2="382.8" y2="598.6" gradientTransform="matrix(1, 0, 0, -1, 0, 1444.2)" gradientUnits="userSpaceOnUse"><stop offset="0" stop-color="#fcb6dc"/><stop offset="1" stop-color="#e2a3e2"/></linearGradient><linearGradient id="linear-gradient-10" x1="379.71" y1="1221.68" x2="380.73" y2="1221.68" gradientTransform="translate(156775.81 -47926.89) rotate(90) scale(128.12)" gradientUnits="userSpaceOnUse"><stop offset="0" stop-color="#fccee4"/><stop offset="1" stop-color="#ebc2e8"/></linearGradient><linearGradient id="linear-gradient-11" x1="379.71" y1="1221.76" x2="380.73" y2="1221.76" xlink:href="#linear-gradient-10"/><linearGradient id="linear-gradient-12" x1="379.71" y1="1218.72" x2="380.73" y2="1218.72" xlink:href="#linear-gradient-10"/><linearGradient id="linear-gradient-13" x1="379.71" y1="1217.99" x2="380.73" y2="1217.99" xlink:href="#linear-gradient-10"/><linearGradient id="linear-gradient-14" x1="379.71" y1="1220.7" x2="380.73" y2="1220.7" xlink:href="#linear-gradient-10"/><linearGradient id="linear-gradient-15" x1="379.71" y1="1221.03" x2="380.73" y2="1221.03" xlink:href="#linear-gradient-10"/><linearGradient id="linear-gradient-16" x1="379.71" y1="1222.51" x2="380.73" y2="1222.51" xlink:href="#linear-gradient-10"/><linearGradient id="linear-gradient-17" x1="379.71" y1="1220.43" x2="380.73" y2="1220.43" xlink:href="#linear-gradient-10"/><linearGradient id="linear-gradient-18" x1="343.45" y1="288.2" x2="343.45" y2="539.03" gradientTransform="matrix(1, 0, 0, -1, 0, 1444.2)" gradientUnits="userSpaceOnUse"><stop offset="0" stop-color="#9e4373"/><stop offset="1" stop-color="#662e55"/></linearGradient><linearGradient id="linear-gradient-19" x1="77.1" y1="745.39" x2="77.1" y2="619.08" xlink:href="#linear-gradient-18"/><linearGradient id="linear-gradient-20" x1="382.75" y1="779.03" x2="382.75" y2="1379.92" xlink:href="#linear-gradient"/><linearGradient id="linear-gradient-21" x1="382.75" y1="93.48" x2="382.75" y2="480.46" gradientTransform="matrix(1, 0, 0, -1, 0, 1444.2)" gradientUnits="userSpaceOnUse"><stop offset="0" stop-color="#66305c"/><stop offset="1" stop-color="#421a3a"/></linearGradient><linearGradient id="linear-gradient-22" x1="640.05" y1="826.06" x2="640.05" y2="610.94" gradientTransform="matrix(1, 0, 0, -1, 0, 1444.2)" gradientUnits="userSpaceOnUse"><stop offset="0.01" stop-color="#bc5e94"/><stop offset="0.13" stop-color="#9e4e80"/><stop offset="0.28" stop-color="#7f3e6d"/><stop offset="0.4" stop-color="#6d3460"/><stop offset="0.49" stop-color="#66305c"/><stop offset="1" stop-color="#421a3a"/></linearGradient><linearGradient id="linear-gradient-23" x1="473.8" y1="764.55" x2="473.8" y2="583.08" gradientTransform="matrix(1, 0, 0, -1, 0, 1444.2)" gradientUnits="userSpaceOnUse"><stop offset="0.01" stop-color="#bc5e94"/><stop offset="0.03" stop-color="#b65b90"/><stop offset="0.16" stop-color="#93487a"/><stop offset="0.29" stop-color="#7a3b69"/><stop offset="0.4" stop-color="#6b335f"/><stop offset="0.49" stop-color="#66305c"/><stop offset="1" stop-color="#421a3a"/></linearGradient></defs><title>day-image_1</title><g id="Layer_2" data-name="Layer 2"><g id="Layer_1-2" data-name="Layer 1"><path d="M734.9,1360.9H30.7A30.64,30.64,0,0,1,0,1330.2V30.7A30.64,30.64,0,0,1,30.7,0H734.8a30.64,30.64,0,0,1,30.7,30.7V1330.2A30.56,30.56,0,0,1,734.9,1360.9Z" fill="url(#linear-gradient)"/><path d="M734.9,1360.9H0V0H765.5V1330.2A30.56,30.56,0,0,1,734.9,1360.9Z" fill="url(#linear-gradient)"/><path d="M579.1,473.9A109.5,109.5,0,1,1,688.6,364.4,109.53,109.53,0,0,1,579.1,473.9m0-235.7A126.3,126.3,0,1,0,705.4,364.5,126.3,126.3,0,0,0,579.1,238.2" fill="url(#linear-gradient-3)"/><path d="M579.1,255A109.5,109.5,0,1,0,688.6,364.5,109.53,109.53,0,0,0,579.1,255" fill="url(#linear-gradient-4)"/><path d="M274.5,475.3s32.1-38.2,48.9-38.2,66.8,98.6,87,92.3,26.9-36.9,53.5-4.9,133.2,155,133.2,155L458.8,713.9Z" fill="url(#linear-gradient-5)"/><path d="M25.3,338.2s53.4-53.9,79.1-53.9c24.3,0,98.2,139.9,98.2,139.9L87.9,499.3Z" fill="url(#linear-gradient-6)"/><path d="M765.6,739.5S692.7,596.7,658.5,596.7c-8.7,0-116,97.2-183.4,45.6-54.4-41.6-180.6-193.5-227.4-250.7a28.91,28.91,0,0,0-39.6-4.6c-24,18.1-60.5,42.5-69.8,30.8C124.1,399.8,0,225.6,0,225.6V739.4H765.6Z" fill="url(#linear-gradient-7)"/><path d="M0,444.8s29.1-47.9,53.9-34.7c13.4,7.1,93.8,117.2,108.1,121.3s39.8-41.8,87.7,21.4S425,739.5,425,739.5H0Z" fill="url(#linear-gradient-8)"/><circle cx="579.1" cy="364.5" r="90.1" fill="#fbf8f1"/><polygon points="0 739.5 765.6 739.5 765.6 1327 0 1319 0 739.5" fill="url(#linear-gradient-9)"/><path d="M256.7,777.1c-81.2,0-153.6,2.1-200.4,5.4,46.8,3.3,119.2,5.4,200.4,5.4s153.6-2.1,200.4-5.4c-46.8-3.3-119.1-5.4-200.4-5.4" fill="url(#linear-gradient-10)"/><path d="M246.9,819.5c-30.4,0-57.5,2.1-75.1,5.4,17.5,3.3,44.6,5.4,75.1,5.4s57.5-2.1,75.1-5.4c-17.5-3.3-44.6-5.4-75.1-5.4" fill="url(#linear-gradient-11)"/><path d="M635.8,757.9c-41.8,0-79.1,2.1-103.2,5.4,24.1,3.3,61.4,5.4,103.2,5.4s79.1-2.1,103.2-5.4c-24.1-3.3-61.3-5.4-103.2-5.4" fill="url(#linear-gradient-12)"/><path d="M729.8,779.8c-11,0-20.9,1.1-27.2,2.7,6.4,1.6,16.2,2.7,27.2,2.7s20.9-1.1,27.2-2.7c-6.3-1.7-16.1-2.7-27.2-2.7" fill="url(#linear-gradient-13)"/><path d="M382.8,804c-13.8,0-26,1.1-34,2.7,7.9,1.6,20.2,2.7,34,2.7s26-1.1,34-2.7c-8-1.7-20.2-2.7-34-2.7" fill="url(#linear-gradient-14)"/><path d="M341,861.9c-30.1,0-56.8,1.1-74.1,2.7,17.3,1.6,44.1,2.7,74.1,2.7s56.8-1.1,74.1-2.7c-17.2-1.7-44-2.7-74.1-2.7" fill="url(#linear-gradient-15)"/><path d="M151.1,848.4c-30.1,0-56.8,1.1-74.1,2.7,17.3,1.6,44.1,2.7,74.1,2.7s56.8-1.1,74.1-2.7c-17.3-1.6-44-2.7-74.1-2.7" fill="url(#linear-gradient-16)"/><path d="M416.8,839.2c-30.1,0-56.8,1.1-74.1,2.7,17.3,1.6,44.1,2.7,74.1,2.7s56.8-1.1,74.1-2.7c-17.3-1.6-44.1-2.7-74.1-2.7" fill="url(#linear-gradient-17)"/><path d="M0,851.1s191.5-1,475.1,206.5c278.7,203.9,202.2,303.3,202.2,303.3L0,1326.3Z" fill="url(#linear-gradient-18)"/><path d="M34.1,853.8,21.6,873.7H33.9q-2.1,4.2-4.8,9H125q-2.7-4.8-4.8-9h12.3L120,853.8l15.9.7c-5-5.9-11.8-15-11.8-15h7.6c-10-7-21.6-31.6-28.9-49l8.8,3.1-11.2-21.4h13.7c-17.2-13.4-37-73.2-37-73.2s-19.7,59.8-37,73.2H53.8L42.6,793.6l8.8-3.1c-7.3,17.4-18.9,42-28.9,49h7.6s-6.7,9.1-11.8,15Z" fill="url(#linear-gradient-19)"/><path d="M0,1049.9v311H765.5V828C409.8,859.1,0,1049.9,0,1049.9Z" fill="url(#linear-gradient-20)"/><path d="M0,1049.9v311H765.5V828C409.8,859.1,0,1049.9,0,1049.9Z" fill="url(#linear-gradient-21)"/><path d="M567.9,834.1l-21.1,33.5h20.7c-2.4,4.7-5.1,9.8-8.1,15.2H720.7c-3-5.4-5.7-10.4-8.1-15.2h20.7l-21.1-33.5,26.7,1.2c-8.5-9.9-19.8-25.2-19.8-25.2H732c-16.8-11.8-36.4-53.2-48.7-82.5l14.7,5.2-18.8-35.9h23.1c-29-22.5-62.2-123.1-62.2-123.1s-33.2,100.6-62.2,123.1H601l-18.8,35.9,14.7-5.2c-12.3,29.3-31.9,70.6-48.7,82.5H561s-11.3,15.3-19.8,25.2Z" fill="url(#linear-gradient-22)"/><path d="M415.9,883.6l-17,26.9h16.6c-1.9,3.8-4.1,7.9-6.5,12.2H538.7c-2.4-4.3-4.6-8.4-6.5-12.2h16.6l-17-26.9,21.5.9c-6.8-7.9-15.9-20.2-15.9-20.2h10.2c-13.5-9.5-29.2-42.7-39.1-66.3l11.8,4.2-15.1-28.9h18.6c-23.3-18.1-50-98.9-50-98.9s-26.7,80.9-50,98.9h18.6l-15.1,28.9,11.8-4.2c-9.9,23.6-25.6,56.8-39.1,66.3h10.2s-9.1,12.3-15.9,20.2Z" fill="url(#linear-gradient-23)"/></g></g></svg>