<svg xmlns="http://www.w3.org/2000/svg" xmlns:xlink="http://www.w3.org/1999/xlink" viewBox="0 0 765.6 1360.9"><defs><linearGradient id="linear-gradient" x1="382.8" y1="812.68" x2="382.8" y2="1413.57" gradientTransform="matrix(1, 0, 0, -1, 0, 1444.2)" gradientUnits="userSpaceOnUse"><stop offset="0" stop-color="#a4e5f4"/><stop offset="0.4" stop-color="#60acc4"/><stop offset="1" stop-color="#352968"/></linearGradient><linearGradient id="linear-gradient-2" x1="419.56" y1="807.99" x2="455.03" y2="936.44" gradientTransform="matrix(1, 0, 0, -1, 0, 1444.2)" gradientUnits="userSpaceOnUse"><stop offset="0" stop-color="#5599b7"/><stop offset="1" stop-color="#407da0"/></linearGradient><linearGradient id="linear-gradient-3" x1="105.9" y1="1035.58" x2="137.34" y2="1142.64" xlink:href="#linear-gradient-2"/><linearGradient id="linear-gradient-4" x1="300.57" y1="810.14" x2="360.54" y2="920.6" gradientTransform="matrix(1, 0, 0, -1, 0, 1444.2)" gradientUnits="userSpaceOnUse"><stop offset="0.01" stop-color="#496e9b"/><stop offset="1" stop-color="#3c578e"/></linearGradient><linearGradient id="linear-gradient-5" x1="212.65" y1="904.84" x2="212.65" y2="741.8" gradientTransform="matrix(1, 0, 0, -1, 0, 1444.2)" gradientUnits="userSpaceOnUse"><stop offset="0.01" stop-color="#373c77"/><stop offset="1" stop-color="#455589"/></linearGradient><linearGradient id="linear-gradient-6" x1="382.85" y1="698.92" x2="382.85" y2="549.5" gradientTransform="matrix(1, 0, 0, -1, 0, 1444.2)" gradientUnits="userSpaceOnUse"><stop offset="0.01" stop-color="#6eb2cc"/><stop offset="1" stop-color="#718fcc"/></linearGradient><linearGradient id="linear-gradient-7" x1="-534.48" y1="1401.1" x2="66.4" y2="1401.1" gradientTransform="matrix(1, 0, 0, -1, 0, 1444.2)" gradientUnits="userSpaceOnUse"><stop offset="0" stop-color="#ccf4fa"/><stop offset="0" stop-color="#ccf4fa"/><stop offset="0.1" stop-color="#c2f0f7"/><stop offset="0.25" stop-color="#a8e6ef"/><stop offset="0.4" stop-color="#8adae6"/><stop offset="0.47" stop-color="#87d3e3"/><stop offset="0.58" stop-color="#7fbeda"/><stop offset="0.72" stop-color="#719ccb"/><stop offset="0.87" stop-color="#5e6eb7"/><stop offset="1" stop-color="#4c40a3"/></linearGradient><linearGradient id="linear-gradient-8" x1="-536.44" y1="1237.09" x2="-535.42" y2="1237.09" gradientTransform="translate(-728739.99 -315549.93) rotate(-90) scale(589.41)" xlink:href="#linear-gradient-7"/><linearGradient id="linear-gradient-9" x1="-536.44" y1="1236.68" x2="-535.42" y2="1236.68" gradientTransform="translate(-728739.99 -315549.93) rotate(-90) scale(589.41)" xlink:href="#linear-gradient-7"/><linearGradient id="linear-gradient-10" x1="-536.44" y1="1237.21" x2="-535.42" y2="1237.21" gradientTransform="translate(-728739.99 -315549.93) rotate(-90) scale(589.41)" xlink:href="#linear-gradient-7"/><linearGradient id="linear-gradient-11" x1="-536.44" y1="1237.51" x2="-535.42" y2="1237.51" gradientTransform="translate(-728739.99 -315549.93) rotate(-90) scale(589.41)" xlink:href="#linear-gradient-7"/><linearGradient id="linear-gradient-12" x1="-536.44" y1="1237.57" x2="-535.42" y2="1237.57" gradientTransform="translate(-728739.99 -315549.93) rotate(-90) scale(589.41)" xlink:href="#linear-gradient-7"/><linearGradient id="linear-gradient-13" x1="-536.44" y1="1236.53" x2="-535.42" y2="1236.53" gradientTransform="translate(-728739.99 -315549.93) rotate(-90) scale(589.41)" xlink:href="#linear-gradient-7"/><linearGradient id="linear-gradient-14" x1="-536.44" y1="1236.74" x2="-535.42" y2="1236.74" gradientTransform="translate(-728739.99 -315549.93) rotate(-90) scale(589.41)" xlink:href="#linear-gradient-7"/><linearGradient id="linear-gradient-15" x1="-536.44" y1="1236.89" x2="-535.42" y2="1236.89" gradientTransform="translate(-728739.99 -315549.93) rotate(-90) scale(589.41)" xlink:href="#linear-gradient-7"/><linearGradient id="linear-gradient-16" x1="-536.44" y1="1236.85" x2="-535.42" y2="1236.85" gradientTransform="translate(-728739.99 -315549.93) rotate(-90) scale(589.41)" xlink:href="#linear-gradient-7"/><linearGradient id="linear-gradient-17" x1="-536.44" y1="1237.31" x2="-535.42" y2="1237.31" gradientTransform="translate(-728739.99 -315549.93) rotate(-90) scale(589.41)" xlink:href="#linear-gradient-7"/><linearGradient id="linear-gradient-18" x1="-536.44" y1="1237.49" x2="-535.42" y2="1237.49" gradientTransform="translate(-728739.99 -315549.93) rotate(-90) scale(589.41)" xlink:href="#linear-gradient-7"/><linearGradient id="linear-gradient-19" x1="-536.44" y1="1236.86" x2="-535.42" y2="1236.86" gradientTransform="translate(-728739.99 -315549.93) rotate(-90) scale(589.41)" xlink:href="#linear-gradient-7"/><linearGradient id="linear-gradient-21" x1="-537.68" y1="1223.69" x2="-536.66" y2="1223.69" gradientTransform="translate(188904.88 83638.08) rotate(90) scale(154.17)" gradientUnits="userSpaceOnUse"><stop offset="0" stop-color="#9ac8d7"/><stop offset="0.01" stop-color="#9ac8d7"/><stop offset="1" stop-color="#9cb0d7"/></linearGradient><linearGradient id="linear-gradient-22" x1="-537.68" y1="1223.76" x2="-536.66" y2="1223.76" xlink:href="#linear-gradient-21"/><linearGradient id="linear-gradient-23" x1="-537.68" y1="1221.23" x2="-536.66" y2="1221.23" xlink:href="#linear-gradient-21"/><linearGradient id="linear-gradient-24" x1="-537.68" y1="1220.62" x2="-536.66" y2="1220.62" xlink:href="#linear-gradient-21"/><linearGradient id="linear-gradient-25" x1="-537.68" y1="1222.87" x2="-536.66" y2="1222.87" xlink:href="#linear-gradient-21"/><linearGradient id="linear-gradient-26" x1="-537.68" y1="1223.15" x2="-536.66" y2="1223.15" xlink:href="#linear-gradient-21"/><linearGradient id="linear-gradient-27" x1="-537.68" y1="1224.38" x2="-536.66" y2="1224.38" xlink:href="#linear-gradient-21"/><linearGradient id="linear-gradient-28" x1="-537.68" y1="1222.65" x2="-536.66" y2="1222.65" xlink:href="#linear-gradient-21"/><linearGradient id="linear-gradient-29" x1="343.55" y1="368.81" x2="343.55" y2="549.11" gradientTransform="matrix(1, 0, 0, -1, 0, 1444.2)" gradientUnits="userSpaceOnUse"><stop offset="0.01" stop-color="#3b4072"/><stop offset="1" stop-color="#252851"/></linearGradient><linearGradient id="linear-gradient-30" x1="77.1" y1="704.27" x2="77.1" y2="586.66" xlink:href="#linear-gradient-29"/><linearGradient id="linear-gradient-31" x1="639.9" y1="786.3" x2="639.9" y2="588.43" gradientTransform="matrix(1, 0, 0, -1, 0, 1444.2)" gradientUnits="userSpaceOnUse"><stop offset="0.01" stop-color="#373766"/><stop offset="1" stop-color="#19193d"/></linearGradient><linearGradient id="linear-gradient-32" x1="473.8" y1="763.66" x2="473.8" y2="569.14" xlink:href="#linear-gradient-31"/><linearGradient id="linear-gradient-33" x1="382.75" y1="1363.98" x2="382.75" y2="931.12" gradientTransform="matrix(1, 0, 0, 1, 0, 0)" xlink:href="#linear-gradient-31"/></defs><title>night-image</title><g id="Layer_2" data-name="Layer 2"><g id="Layer_1-2" data-name="Layer 1"><path d="M734.9,1360.9H.1V0H765.5V1330.2A30.49,30.49,0,0,1,734.9,1360.9Z" fill="url(#linear-gradient)"/><path d="M274.5,475.3s32.1-38.2,48.9-38.2,66.8,98.6,87,92.3,26.9-36.9,53.5-4.9,133.2,155,133.2,155L458.8,713.9Z" fill="url(#linear-gradient-2)"/><path d="M25.3,338.2s53.4-53.9,79.1-53.9c24.3,0,98.2,139.9,98.2,139.9L87.9,499.3Z" fill="url(#linear-gradient-3)"/><path d="M765.6,739.5S692.7,596.7,658.5,596.7c-8.7,0-116,97.2-183.4,45.6-54.4-41.6-180.6-193.5-227.4-250.7a28.91,28.91,0,0,0-39.6-4.6c-24,18.1-60.5,42.5-69.8,30.8C124,399.9,0,225.7,0,225.7V739.5Z" fill="url(#linear-gradient-4)"/><path d="M.1,444.8S29.2,396.9,54,410.1c13.4,7.1,93.8,117.2,108.1,121.3s39.8-41.8,87.7,21.4S425.2,739.4,425.2,739.4H.2V444.8Z" fill="url(#linear-gradient-5)"/><path d="M632.3,412.3a90,90,0,0,1-90.1-90.1A88.62,88.62,0,0,1,554.4,277,90.1,90.1,0,1,0,666.6,405.6,90.38,90.38,0,0,1,632.3,412.3Z" fill="#e0f9fc"/><rect x="0.1" y="739.5" width="765.5" height="590.8" fill="url(#linear-gradient-6)"/><path d="M53.9,37A6.1,6.1,0,1,0,60,43.1,6.12,6.12,0,0,0,53.9,37Z" fill="url(#linear-gradient-7)"/><path d="M408.7,290.9a6.1,6.1,0,1,0,6.1,6.1,6.19,6.19,0,0,0-6.1-6.1" fill="url(#linear-gradient-8)"/><path d="M168.4,80.9a6.1,6.1,0,1,0,6.1,6.1,6.06,6.06,0,0,0-6.1-6.1" fill="url(#linear-gradient-9)"/><path d="M480,43.2a6.1,6.1,0,1,0,6.1,6.1,6.06,6.06,0,0,0-6.1-6.1" fill="url(#linear-gradient-10)"/><path d="M655.4,136.1a6.1,6.1,0,1,0,6.1,6.1,6.06,6.06,0,0,0-6.1-6.1" fill="url(#linear-gradient-11)"/><path d="M690.9,66.9a3.9,3.9,0,1,0,3.9,3.9,4,4,0,0,0-3.9-3.9" fill="url(#linear-gradient-12)"/><path d="M80.9,138.3a3.9,3.9,0,1,0,3.9,3.9,3.84,3.84,0,0,0-3.9-3.9" fill="url(#linear-gradient-13)"/><path d="M202.6,264.3a3.9,3.9,0,1,0,3.9,3.9,3.9,3.9,0,0,0-3.9-3.9" fill="url(#linear-gradient-14)"/><path d="M291.6,348.1a3.9,3.9,0,1,0,3.9,3.9,4,4,0,0,0-3.9-3.9" fill="url(#linear-gradient-15)"/><path d="M270.6,35.3a3.9,3.9,0,1,0,3.9,3.9,4,4,0,0,0-3.9-3.9" fill="url(#linear-gradient-16)"/><path d="M541.2,33.1a3.9,3.9,0,1,0,3.9,3.9,3.9,3.9,0,0,0-3.9-3.9" fill="url(#linear-gradient-17)"/><path d="M649.3,308.4a3.9,3.9,0,1,0,3.9,3.9,3.9,3.9,0,0,0-3.9-3.9" fill="url(#linear-gradient-18)"/><path d="M274.5,232.3a3.9,3.9,0,1,0,3.9,3.9,3.9,3.9,0,0,0-3.9-3.9" fill="url(#linear-gradient-19)"/><path d="M649.3,268.2a6.1,6.1,0,1,0,6.1,6.1,6.19,6.19,0,0,0-6.1-6.1" fill="url(#linear-gradient-18)"/><path d="M252.9,775.3c-81.2,0-153.6,2.1-200.4,5.4,46.8,3.3,119.2,5.4,200.4,5.4s153.6-2.1,200.4-5.4c-46.8-3.2-119.1-5.4-200.4-5.4" fill="url(#linear-gradient-21)"/><path d="M243.1,817.7c-30.4,0-57.5,2.1-75.1,5.4,17.5,3.3,44.6,5.4,75.1,5.4s57.5-2.1,75.1-5.4c-17.6-3.2-44.7-5.4-75.1-5.4" fill="url(#linear-gradient-22)"/><path d="M632,756.2c-41.8,0-79.1,2.1-103.2,5.4,24.1,3.3,61.4,5.4,103.2,5.4s79.1-2.1,103.2-5.4c-24.1-3.3-61.3-5.4-103.2-5.4" fill="url(#linear-gradient-23)"/><path d="M726,778c-11,0-20.9,1.1-27.2,2.7,6.4,1.6,16.2,2.7,27.2,2.7s20.9-1.1,27.2-2.7c-6.3-1.6-16.2-2.7-27.2-2.7" fill="url(#linear-gradient-24)"/><path d="M379,802.2c-13.8,0-26,1.1-34,2.7,7.9,1.6,20.2,2.7,34,2.7s26-1.1,34-2.7c-8-1.6-20.2-2.7-34-2.7" fill="url(#linear-gradient-25)"/><path d="M337.2,860.2c-30.1,0-56.8,1.1-74.1,2.7,17.3,1.6,44.1,2.7,74.1,2.7s56.8-1.1,74.1-2.7c-17.3-1.7-44-2.7-74.1-2.7" fill="url(#linear-gradient-26)"/><path d="M147.3,846.7c-30.1,0-56.8,1.1-74.1,2.7,17.3,1.6,44.1,2.7,74.1,2.7s56.8-1.1,74.1-2.7c-17.3-1.7-44-2.7-74.1-2.7" fill="url(#linear-gradient-27)"/><path d="M413,837.5c-30.1,0-56.8,1.1-74.1,2.7,17.3,1.6,44.1,2.7,74.1,2.7s56.8-1.1,74.1-2.7c-17.3-1.6-44.1-2.7-74.1-2.7" fill="url(#linear-gradient-28)"/><path d="M.1,851.1s191.5-1,475.1,206.5c278.7,203.9,202.2,303.3,202.2,303.3L.1,1330.3Z" fill="url(#linear-gradient-29)"/><path d="M34.1,853.8,21.6,873.7H33.9q-2.1,4.2-4.8,9H125q-2.7-4.8-4.8-9h12.3L120,853.8l15.9.7c-5-5.9-11.8-15-11.8-15h7.6c-10-7-21.6-31.6-28.9-49l8.8,3.1-11.2-21.4h13.7c-17.2-13.4-37-73.2-37-73.2s-19.7,59.8-37,73.2H53.8L42.6,793.6l8.8-3.1c-7.3,17.4-18.9,42-28.9,49h7.6s-6.7,9.1-11.8,15Z" fill="url(#linear-gradient-30)"/><path d="M567.9,834.1l-21.1,33.5h20.7c-2.4,4.7-5.1,9.8-8.1,15.2H720.7c-3-5.4-5.7-10.4-8.1-15.2h20.7l-21.1-33.5,26.7,1.2c-8.5-9.9-19.8-25.2-19.8-25.2h12.7c-16.8-11.8-36.4-53.2-48.7-82.5l14.7,5.2L679,696.9h23.1c-29-22.5-62.2-123.1-62.2-123.1s-33.2,100.6-62.2,123.1h23.1L582,732.8l14.7-5.2c-12.3,29.3-31.9,70.6-48.7,82.5h12.7s-11.3,15.3-19.8,25.2Z" fill="url(#linear-gradient-31)"/><path d="M415.9,883.6l-17,26.9h16.6c-1.9,3.8-4.1,7.9-6.5,12.2H538.7c-2.4-4.3-4.6-8.4-6.5-12.2h16.6l-17-26.9,21.5.9c-6.8-7.9-15.9-20.2-15.9-20.2h10.2c-13.5-9.5-29.2-42.7-39.1-66.3l11.8,4.2-15.1-28.9h18.6c-23.3-18.1-50-98.9-50-98.9s-26.7,80.9-50,98.9h18.6l-15.1,28.9,11.8-4.2c-9.9,23.6-25.6,56.8-39.1,66.3h10.2s-9.1,12.3-15.9,20.2Z" fill="url(#linear-gradient-32)"/><polyline points="0 1049.9 0.1 1360.9 765.5 1360.9 765.5 828" fill="url(#linear-gradient-33)"/></g></g></svg>